<svg width="880" height="870" viewBox="0 0 880 870" fill="none" xmlns="http://www.w3.org/2000/svg">
<path d="M818.281 704.607C811.652 749.913 778.464 789.09 732.018 806.506C709.259 815.194 684.6 817.832 659.941 815.194C636.254 812.595 612.523 805.613 587.908 792.581C553.792 775.124 519.631 748.167 479.814 708.098C542.39 637.54 580.307 573.112 594.537 515.626C601.165 488.629 602.138 464.23 599.265 441.577C595.465 419.817 586.936 399.762 573.678 382.345C544.29 343.169 494.972 320.516 439.997 320.516C385.022 320.516 335.704 344.021 306.316 382.345C293.059 399.762 284.53 419.817 280.729 441.577C276.929 464.23 277.901 489.482 285.458 515.626C299.688 573.112 338.532 638.433 400.18 708.951C361.291 749.02 326.247 776.017 292.087 793.434C267.427 806.506 243.741 813.489 220.054 816.087C195.615 818.604 170.912 815.6 148.021 807.399C101.575 789.983 68.3867 750.766 61.7579 705.5C58.9296 683.74 60.8299 661.979 70.287 637.58C73.1153 628.852 77.888 620.164 82.6165 609.731C89.2453 595.806 96.8464 580.988 104.403 566.17L105.375 564.424C170.78 434.635 240.956 302.247 313.962 173.35L316.79 168.113C324.391 155.082 331.948 141.116 339.549 128.044C347.15 114.119 355.679 101.047 366.108 89.72C386.039 68.8124 412.554 57.4858 441.942 57.4858C471.329 57.4858 497.889 68.8124 517.775 89.72C528.204 101.047 536.733 114.119 544.335 128.044C551.936 141.116 559.492 155.041 567.093 168.073L569.966 173.31C641.999 303.059 712.176 435.447 777.58 565.236V566.089C785.181 580.014 791.81 595.725 799.367 609.65C804.095 620.124 808.868 628.811 811.696 637.499C819.253 660.193 822.081 681.953 818.281 704.607ZM439.997 663.644C388.823 604.412 355.635 548.672 344.233 501.661C339.505 481.606 338.532 464.189 341.405 448.519C343.305 434.594 349.006 422.374 356.563 411.941C374.593 388.435 404.909 373.617 439.997 373.617C475.086 373.617 506.374 387.582 523.432 411.941C531.033 422.415 536.689 434.594 538.59 448.519C541.418 464.189 540.49 482.499 535.761 501.661C524.404 547.82 491.216 603.56 439.997 663.644ZM867.599 618.378C862.87 607.944 858.098 596.618 853.369 587.037C845.768 571.366 838.211 556.548 831.538 542.623L830.61 541.771C765.206 411.129 695.029 278.741 621.096 148.099L618.268 142.862C610.667 129.79 603.11 115.865 595.509 101.94C586.008 86.2693 576.551 69.7056 561.393 54.035C531.033 19.1619 487.415 0 440.969 0C393.551 0 350.906 19.1619 319.574 52.2487C305.344 67.9193 294.915 84.483 285.458 100.154C277.857 114.078 270.3 128.003 262.699 141.076L259.871 146.272C186.865 276.914 115.761 409.302 50.3564 539.944L49.4284 541.69C42.7996 555.615 35.1985 570.433 27.5975 586.103C22.5154 596.415 17.7869 606.889 13.3677 617.444C1.03811 649.678 -2.7624 680.167 1.96614 711.508C12.3955 776.829 59.8135 831.717 125.218 856.075C149.877 865.656 175.464 870 202.023 870C209.624 870 219.081 869.147 226.682 868.254C257.97 864.763 290.186 855.223 321.474 838.659C360.363 818.644 397.308 789.902 439.025 748.086C480.742 789.902 518.659 818.644 556.576 838.659C587.864 855.223 620.08 864.763 651.368 868.254C658.969 869.147 668.426 870 676.027 870C702.586 870 729.101 865.656 752.832 856.075C819.209 831.676 865.655 775.936 876.084 711.508C883.685 681.06 879.884 650.612 867.599 618.378Z" fill="#E0565B"/>
</svg>
